#!OML:ASF E:\Steps\Project 1\Capture day 1\Session 2\Subject.ASF
:FULLY-SPECIFIED
:DEGREES
119
root 7.21411 16.2781 31.0429 -154.128 -4.36376 179.151
lowerback -28.3366 -1.79847 -5.13232
upperback -1.19541 -1.36772 0.672693
thorax 13.8237 -1.19125 2.95623
lowerneck -3.65518 -3.06182 -1.04312
upperneck 18.7728 -5.98536 3.44729
head 6.43323 -3.17808 0.819936
rclavicle 3.03147e-015 -7.35503e-015
rhumerus -36.4524 -21.8536 -75.6305
rradius 31.8973
rwrist 2.48526
rhand -6.40137 -55.594
rfingers 7.12502
rthumb 19.4465 -84.6415
lclavicle 3.03147e-015 -7.35503e-015
lhumerus -28.1 5.55544 82.4954
lradius 24.8742
lwrist -3.38415
lhand -20.8687 -14.4926
lfingers 7.12502
lthumb 5.50109 15.416
rfemur -22.2528 4.97308 21.5145
rtibia 6.51359
rfoot -20.0064 -7.29121
rtoes -31.0529
lfemur -23.2541 -8.14333 -18.0834
ltibia 9.38421
lfoot -10.3508 3.75117
ltoes -31.1774
120
root 7.2205 16.2774 31.0426 -154.068 -4.33139 179.158
lowerback -28.3496 -1.81859 -5.13336
upperback -1.2076 -1.39594 0.672506
thorax 13.8181 -1.20473 2.94531
lowerneck -3.59926 -3.13574 -1.05137
upperneck 18.6938 -6.0891 3.49129
head 6.40262 -3.22644 0.830322
rclavicle 6.16232e-015 1.96797e-014
rhumerus -36.3811 -21.7823 -75.7444
rradius 31.9499
rwrist 2.38977
rhand -6.60017 -56.0197
rfingers 7.12502
rthumb 19.2553 -85.0864
lclavicle 6.16232e-015 1.96797e-014
lhumerus -28.0024 5.64615 82.5008
lradius 24.8972
lwrist -3.44507
lhand -20.9316 -14.5781
lfingers 7.12502
lthumb 5.44035 15.332
rfemur -22.5644 5.68522 21.4159
rtibia 7.0258
rfoot -20.259 -7.99215
rtoes -31.2354
lfemur -23.3222 -8.11425 -18.0415
ltibia 9.39741
lfoot -10.2359 3.83964
ltoes -33.1245
121
root 7.22758 16.2768 31.0414 -154.023 -4.27289 179.21
lowerback -28.3604 -1.81039 -5.09056
upperback -1.23154 -1.40125 0.656157
thorax 13.7947 -1.20493 2.90169
lowerneck -3.54363 -3.10707 -0.992166
upperneck 18.6022 -6.07 3.61202
head 6.36545 -3.20602 0.862399
rclavicle -7.85199e-015 1.14301e-014
rhumerus -36.4695 -21.9576 -75.7765
rradius 32.0175
rwrist 2.56339
rhand -6.51839 -55.7005
rfingers 7.12502
rthumb 19.334 -84.7594
lclavicle -7.85199e-015 1.14301e-014
lhumerus -27.9948 5.74881 82.4146
lradius 24.9505
lwrist -3.61108
lhand -21.0549 -14.4451
lfingers 7.12502
lthumb 5.32132 15.4681
rfemur -22.6861 6.18955 21.403
rtibia 7.18528
rfoot -20.3523 -8.42112
rtoes -31.3819
lfemur -23.3948 -8.06492 -17.9563
ltibia 9.46689
lfoot -10.3042 3.92068
ltoes -33.4585
122
root 7.23338 16.2741 31.0378 -153.986 -4.1792 179.257
lowerback -28.4042 -1.77479 -5.05154
upperback -1.24716 -1.36722 0.63844
thorax 13.7927 -1.18818 2.87298
lowerneck -3.48713 -3.00615 -0.936886
upperneck 18.5275 -5.94987 3.72786
head 6.33067 -3.13748 0.900232
rclavicle 1.01629e-014 2.38542e-015
rhumerus -36.6122 -22.1961 -75.7078
rradius 32.0728
rwrist 2.80156
rhand -6.20967 -55.1143
rfingers 7.12502
rthumb 19.6308 -84.1431
lclavicle 1.01629e-014 2.38542e-015
lhumerus -27.998 5.62494 82.4181
lradius 25.0618
lwrist -3.57469
lhand -21.1163 -14.2255
lfingers 7.12502
lthumb 5.26206 15.6891
rfemur -22.6956 6.52178 21.4054
rtibia 7.12372
rfoot -20.372 -8.60922
rtoes -31.3777
lfemur -23.4308 -8.02143 -17.8898
ltibia 9.49948
lfoot -10.4508 4.00223
ltoes -32.5597
123
root 7.23995 16.2748 31.034 -153.927 -3.9397 179.118
lowerback -28.44 -1.72615 -5.25263
upperback -1.29278 -1.23731 0.561796
thorax 13.7439 -1.14231 2.94754
lowerneck -3.44391 -2.98055 -0.897263
upperneck 18.6666 -5.95414 3.74878
head 6.3672 -3.14289 0.898732
rclavicle 8.02593e-015 8.15017e-015
rhumerus -36.4867 -22.2577 -75.6098
rradius 31.8345
rwrist 2.78703
rhand -5.96579 -55.0526
rfingers 7.12502
rthumb 19.8652 -84.0573
lclavicle 8.02593e-015 8.15017e-015
lhumerus -28.0392 5.21493 82.5472
lradius 25.2478
lwrist -3.38914
lhand -21.1915 -13.5844
lfingers 7.12502
lthumb 5.18945 16.332
rfemur -22.8256 6.5565 21.2225
rtibia 7.18326
rfoot -20.3177 -8.58954
rtoes -32.0053
lfemur -23.4378 -7.89913 -18.0748
ltibia 9.47286
lfoot -10.4756 4.0601
ltoes -32.3758
124
root 7.24768 16.2817 31.0303 -153.758 -3.48811 178.581
lowerback -28.5808 -1.75544 -5.88486
upperback -1.35089 -1.05596 0.353568
thorax 13.7213 -1.10037 3.13004
lowerneck -3.39506 -3.01112 -0.809901
upperneck 18.8501 -6.03977 3.70514
head 6.41595 -3.19117 0.862763
rclavicle -3.13086e-015 6.55989e-015
rhumerus -37.0993 -22.3232 -75.6118
rradius 32.2994
rwrist 2.80461
rhand -5.85914 -54.9617
rfingers 7.12502
rthumb 19.9678 -83.9558
lclavicle -3.13086e-015 6.55989e-015
lhumerus -28.1082 4.79776 82.6053
lradius 25.429
lwrist -3.16541
lhand -21.2916 -13.2471
lfingers 7.12502
lthumb 5.09279 16.6717
rfemur -23.2136 6.5155 20.5096
rtibia 7.51418
rfoot -20.3513 -8.51103
rtoes -32.1627
lfemur -23.5075 -7.92094 -18.7129
ltibia 9.38362
lfoot -10.5295 4.16456
ltoes -31.5233
125
root 7.25781 16.2754 31.0329 -153.95 -3.75066 179.074
lowerback -28.3234 -1.6911 -5.3475
upperback -1.35027 -1.16297 0.466343
thorax 13.6143 -1.11106 2.92588
lowerneck -3.27418 -3.1036 -0.674861
upperneck 18.7939 -6.16178 3.59071
head 6.37298 -3.25381 0.7994
rclavicle 1.03617e-014 1.15295e-014
rhumerus -37.2908 -22.2591 -75.711
rradius 32.4668
rwrist 2.72622
rhand -5.9244 -54.977
rfingers 7.12502
rthumb 19.905 -83.9776
lclavicle 1.03617e-014 1.15295e-014
lhumerus -28.158 4.58436 82.6089
lradius 25.5397
lwrist -2.88647
lhand -21.2806 -13.2169
lfingers 7.12502
lthumb 5.10342 16.7016
rfemur -23.0679 6.60821 21.2218
rtibia 7.63767
rfoot -20.4305 -8.61959
rtoes -32.1164
lfemur -23.3844 -7.83642 -18.0453
ltibia 9.39687
lfoot -10.5745 4.04668
ltoes -31.1989
126
root 7.26591 16.274 31.0334 -154.028 -3.85902 179.235
lowerback -28.24 -1.72262 -5.17895
upperback -1.30345 -1.26176 0.550351
thorax 13.6403 -1.14435 2.89021
lowerneck -3.38019 -3.11684 -0.67953
upperneck 18.8703 -6.17511 3.53026
head 6.41435 -3.26253 0.776639
rclavicle 2.48481e-015 6.75868e-015
rhumerus -37.1801 -22.1468 -75.8002
rradius 32.4889
rwrist 2.60749
rhand -6.08066 -55.1318
rfingers 7.12502
rthumb 19.7548 -84.148
lclavicle 2.48481e-015 6.75868e-015
lhumerus -28.1508 4.59269 82.6471
lradius 25.611
lwrist -2.76212
lhand -21.1509 -13.3206
lfingers 7.12502
lthumb 5.22868 16.5949
rfemur -23.031 6.72987 21.4713
rtibia 7.71992
rfoot -20.4251 -8.81125
rtoes -32.4977
lfemur -23.3683 -7.8864 -17.7862
ltibia 9.48564
lfoot -10.6194 4.09993
ltoes -31.0799
127
root 7.27209 16.2752 31.0331 -154.036 -3.87783 179.281
lowerback -28.247 -1.79227 -5.13186
upperback -1.2599 -1.37166 0.637519
thorax 13.7065 -1.1927 2.91754
lowerneck -3.61224 -3.01836 -0.77155
upperneck 19.1299 -6.04152 3.44484
head 6.53419 -3.20779 0.764949
rclavicle -1.06101e-014 -3.97569e-015
rhumerus -36.9847 -22.0605 -75.8301
rradius 32.435
rwrist 2.54945
rhand -6.09887 -55.2921
rfingers 7.12502
rthumb 19.7373 -84.31
lclavicle -1.06101e-014 -3.97569e-015
lhumerus -28.0866 4.82232 82.6606
lradius 25.5689
lwrist -2.92048
lhand -21.162 -13.5143
lfingers 7.12502
lthumb 5.21797 16.4014
rfemur -23.0987 6.80966 21.5526
rtibia 7.87011
rfoot -20.4623 -8.8725
rtoes -32.4436
lfemur -23.3781 -8.03039 -17.6703
ltibia 9.53177
lfoot -10.5819 4.27334
ltoes -32.2266
128
root 7.27828 16.2739 31.0308 -154.005 -3.81759 179.289
lowerback -28.3164 -1.81349 -5.08436
upperback -1.22661 -1.40857 0.64198
thorax 13.78 -1.20765 2.88094
lowerneck -3.58641 -3.00222 -0.760255
upperneck 19.1004 -5.99589 3.34346
head 6.51561 -3.19201 0.73524
rclavicle 1.52816e-014 1.51076e-014
rhumerus -36.8618 -22.2273 -75.8213
rradius 32.345
rwrist 2.62817
rhand -6.03727 -55.737
rfingers 7.12502
rthumb 19.7965 -84.7488
lclavicle 1.52816e-014 1.51076e-014
lhumerus -27.959 4.89596 82.6563
lradius 25.4391
lwrist -2.95275
lhand -21.2038 -14.2246
lfingers 7.12502
lthumb 5.17758 15.6922
rfemur -23.2398 6.9523 21.5442
rtibia 8.07406
rfoot -20.5412 -8.96375
rtoes -32.3342
lfemur -23.3984 -8.0416 -17.6349
ltibia 9.54591
lfoot -10.5233 4.40113
ltoes -33.4332
